<mxfile host="app.diagrams.net" modified="2023-11-24T14:52:45.025Z" agent="Mozilla/5.0 (Windows NT 10.0; Win64; x64) AppleWebKit/537.36 (KHTML, like Gecko) Chrome/119.0.0.0 Safari/537.36" etag="iLZQDvLZSgBIdyl-A-FB" version="22.1.3" type="github">
  <diagram name="Page-1" id="9f46799a-70d6-7492-0946-bef42562c5a5">
    <mxGraphModel dx="1975" dy="478" grid="1" gridSize="10" guides="1" tooltips="1" connect="1" arrows="1" fold="1" page="1" pageScale="1" pageWidth="1100" pageHeight="850" background="none" math="0" shadow="0">
      <root>
        <mxCell id="0" />
        <mxCell id="1" parent="0" />
        <mxCell id="zKdDq2GKEJ2XVdY2i587-24" value="登录" style="ellipse;whiteSpace=wrap;html=1;" parent="1" vertex="1">
          <mxGeometry x="70" y="20" width="120" height="80" as="geometry" />
        </mxCell>
        <mxCell id="zKdDq2GKEJ2XVdY2i587-26" value="post(&#39;/)&lt;br&gt;req:&amp;nbsp; res：&lt;br&gt;密码匹配" style="rounded=1;whiteSpace=wrap;html=1;fillColor=#d5e8d4;strokeColor=#82b366;" parent="1" vertex="1">
          <mxGeometry x="160" y="280" width="120" height="60" as="geometry" />
        </mxCell>
        <mxCell id="zKdDq2GKEJ2XVdY2i587-28" value="routers/Login.js" style="shape=process;whiteSpace=wrap;html=1;backgroundOutline=1;" parent="1" vertex="1">
          <mxGeometry x="-145" y="150" width="120" height="60" as="geometry" />
        </mxCell>
        <mxCell id="zKdDq2GKEJ2XVdY2i587-29" value="HandleLoginButton&lt;br&gt;点击按钮触发，通信服务端" style="rounded=1;whiteSpace=wrap;html=1;fillColor=#dae8fc;strokeColor=#6c8ebf;" parent="1" vertex="1">
          <mxGeometry x="-170" y="260" width="170" height="100" as="geometry" />
        </mxCell>
        <mxCell id="zKdDq2GKEJ2XVdY2i587-31" style="edgeStyle=orthogonalEdgeStyle;rounded=0;orthogonalLoop=1;jettySize=auto;html=1;entryX=0.5;entryY=1;entryDx=0;entryDy=0;" parent="1" source="zKdDq2GKEJ2XVdY2i587-30" target="zKdDq2GKEJ2XVdY2i587-29" edge="1">
          <mxGeometry relative="1" as="geometry" />
        </mxCell>
        <mxCell id="zKdDq2GKEJ2XVdY2i587-30" value="HandleLoginResult&lt;br&gt;res: req:&lt;br&gt;" style="rounded=1;whiteSpace=wrap;html=1;fillColor=#dae8fc;strokeColor=#6c8ebf;" parent="1" vertex="1">
          <mxGeometry x="-180" y="460" width="190" height="100" as="geometry" />
        </mxCell>
        <mxCell id="lCSJaCqb7YyqVJU4wIHZ-3" value="1" style="endArrow=open;html=1;endSize=12;startArrow=diamondThin;startSize=14;startFill=1;edgeStyle=orthogonalEdgeStyle;align=left;verticalAlign=bottom;rounded=0;" edge="1" parent="1">
          <mxGeometry x="-1" y="3" relative="1" as="geometry">
            <mxPoint y="310" as="sourcePoint" />
            <mxPoint x="160" y="310" as="targetPoint" />
          </mxGeometry>
        </mxCell>
        <mxCell id="lCSJaCqb7YyqVJU4wIHZ-5" style="edgeStyle=orthogonalEdgeStyle;rounded=0;orthogonalLoop=1;jettySize=auto;html=1;entryX=0.5;entryY=1;entryDx=0;entryDy=0;" edge="1" parent="1" target="zKdDq2GKEJ2XVdY2i587-26">
          <mxGeometry relative="1" as="geometry">
            <mxPoint x="220" y="410" as="sourcePoint" />
          </mxGeometry>
        </mxCell>
        <mxCell id="lCSJaCqb7YyqVJU4wIHZ-6" value="User.findone()&lt;br&gt;req: {{ziduan:&#39;&#39;}}&amp;nbsp; &amp;nbsp;res:{一整行记录}&lt;br&gt;直接用的数据库模型" style="rounded=1;whiteSpace=wrap;html=1;fillColor=#d5e8d4;strokeColor=#82b366;" vertex="1" parent="1">
          <mxGeometry x="130" y="410" width="180" height="60" as="geometry" />
        </mxCell>
        <mxCell id="lCSJaCqb7YyqVJU4wIHZ-7" value="主页面：侧边栏+空白页面" style="ellipse;whiteSpace=wrap;html=1;rounded=1;strokeColor=default;align=center;verticalAlign=middle;fontFamily=Helvetica;fontSize=12;fontColor=default;fillColor=default;" vertex="1" parent="1">
          <mxGeometry x="510" y="20" width="120" height="80" as="geometry" />
        </mxCell>
      </root>
    </mxGraphModel>
  </diagram>
</mxfile>
